<svg width="40" height="40" viewBox="0 0 40 40" fill="none" xmlns="http://www.w3.org/2000/svg">
<path d="M20 15.9999V28.9999M20 15.9999C19.6383 14.5094 19.0154 13.235 18.2127 12.3431C17.41 11.4512 16.4647 10.9831 15.5 10.9999C14.837 10.9999 14.2011 11.2633 13.7322 11.7322C13.2634 12.201 13 12.8369 13 13.4999C13 14.163 13.2634 14.7989 13.7322 15.2677C14.2011 15.7366 14.837 15.9999 15.5 15.9999M20 15.9999C20.3617 14.5094 20.9846 13.235 21.7873 12.3431C22.59 11.4512 23.5353 10.9831 24.5 10.9999C25.163 10.9999 25.7989 11.2633 26.2678 11.7322C26.7366 12.201 27 12.8369 27 13.4999C27 14.163 26.7366 14.7989 26.2678 15.2677C25.7989 15.7366 25.163 15.9999 24.5 15.9999M27 19.9999V26.9999C27 27.5304 26.7893 28.0391 26.4142 28.4142C26.0391 28.7892 25.5304 28.9999 25 28.9999H15C14.4696 28.9999 13.9609 28.7892 13.5858 28.4142C13.2107 28.0391 13 27.5304 13 26.9999V19.9999M12 15.9999H28C28.5523 15.9999 29 16.4477 29 16.9999V18.9999C29 19.5522 28.5523 19.9999 28 19.9999H12C11.4477 19.9999 11 19.5522 11 18.9999V16.9999C11 16.4477 11.4477 15.9999 12 15.9999Z" stroke="#021526" stroke-width="2" stroke-linecap="round" stroke-linejoin="round"/>
</svg>
