<svg width="40" height="40" viewBox="0 0 40 40" fill="none" xmlns="http://www.w3.org/2000/svg">
<path d="M24 29V27C24 25.9391 23.5786 24.9217 22.8284 24.1716C22.0783 23.4214 21.0609 23 20 23H14C12.9391 23 11.9217 23.4214 11.1716 24.1716C10.4214 24.9217 10 25.9391 10 27V29M30 29V27C29.9993 26.1137 29.7044 25.2528 29.1614 24.5523C28.6184 23.8519 27.8581 23.3516 27 23.13M24 11.13C24.8604 11.3503 25.623 11.8507 26.1676 12.5523C26.7122 13.2539 27.0078 14.1168 27.0078 15.005C27.0078 15.8932 26.7122 16.7561 26.1676 17.4577C25.623 18.1593 24.8604 18.6597 24 18.88M21 15C21 17.2091 19.2091 19 17 19C14.7909 19 13 17.2091 13 15C13 12.7909 14.7909 11 17 11C19.2091 11 21 12.7909 21 15Z" stroke="#021526" stroke-width="2" stroke-linecap="round" stroke-linejoin="round"/>
</svg>
