<svg width="40" height="40" viewBox="0 0 40 40" fill="none" xmlns="http://www.w3.org/2000/svg">
<path d="M17 20H23M20 17V23M10 17C10.7956 17 11.5587 17.3161 12.1213 17.8787C12.6839 18.4413 13 19.2044 13 20C13 20.7956 12.6839 21.5587 12.1213 22.1213C11.5587 22.6839 10.7956 23 10 23V25C10 25.5304 10.2107 26.0391 10.5858 26.4142C10.9609 26.7893 11.4696 27 12 27H28C28.5304 27 29.0391 26.7893 29.4142 26.4142C29.7893 26.0391 30 25.5304 30 25V23C29.2044 23 28.4413 22.6839 27.8787 22.1213C27.3161 21.5587 27 20.7956 27 20C27 19.2044 27.3161 18.4413 27.8787 17.8787C28.4413 17.3161 29.2044 17 30 17V15C30 14.4696 29.7893 13.9609 29.4142 13.5858C29.0391 13.2107 28.5304 13 28 13H12C11.4696 13 10.9609 13.2107 10.5858 13.5858C10.2107 13.9609 10 14.4696 10 15V17Z" stroke="#021526" stroke-width="2" stroke-linecap="round" stroke-linejoin="round"/>
</svg>
