<svg width="23" height="18" viewBox="0 0 23 18" fill="none" xmlns="http://www.w3.org/2000/svg">
<path d="M21.5 9H15.5L13.5 12H9.5L7.5 9H1.5M21.5 9V15C21.5 15.5304 21.2893 16.0391 20.9142 16.4142C20.5391 16.7893 20.0304 17 19.5 17H3.5C2.96957 17 2.46086 16.7893 2.08579 16.4142C1.71071 16.0391 1.5 15.5304 1.5 15V9M21.5 9L18.05 2.11C17.8844 1.77679 17.6292 1.49637 17.313 1.30028C16.9967 1.10419 16.6321 1.0002 16.26 1H6.74C6.36792 1.0002 6.00326 1.10419 5.68704 1.30028C5.37083 1.49637 5.11558 1.77679 4.95 2.11L1.5 9" stroke="#465461" stroke-width="2" stroke-linecap="round" stroke-linejoin="round"/>
</svg>
