<svg width="24" height="24" viewBox="0 0 24 24" fill="none" xmlns="http://www.w3.org/2000/svg">
<path d="M5.3191 14.5044L4.48366 17.6232L1.43016 17.6878C0.517613 15.9952 0 14.0587 0 12.0008C0 10.0109 0.483955 8.13429 1.3418 6.48193H1.34246L4.06093 6.98033L5.25179 9.68249C5.00254 10.4091 4.86669 11.1892 4.86669 12.0008C4.86679 12.8817 5.02636 13.7257 5.3191 14.5044Z" fill="#FBBB00"/>
<path d="M23.7906 9.75879C23.9284 10.4847 24.0003 11.2344 24.0003 12.0006C24.0003 12.8598 23.91 13.6978 23.7379 14.5062C23.1537 17.2571 21.6272 19.6592 19.5127 21.359L19.512 21.3583L16.088 21.1836L15.6034 18.1584C17.0065 17.3356 18.103 16.0478 18.6806 14.5062H12.2637V9.75879H18.7742H23.7906Z" fill="#518EF8"/>
<path d="M19.514 21.358L19.5147 21.3586C17.4582 23.0117 14.8457 24.0007 12.0019 24.0007C7.43186 24.0007 3.45854 21.4463 1.43164 17.6873L5.32058 14.5039C6.33401 17.2086 8.94312 19.134 12.0019 19.134C13.3167 19.134 14.5484 18.7785 15.6053 18.1581L19.514 21.358Z" fill="#28B446"/>
<path d="M19.6603 2.76273L15.7726 5.94547C14.6788 5.26172 13.3857 4.86674 12.0004 4.86674C8.8724 4.86674 6.21449 6.88042 5.25183 9.6821L1.34245 6.48155H1.3418C3.33903 2.63086 7.36245 0 12.0004 0C14.9122 0 17.5819 1.03719 19.6603 2.76273Z" fill="#F14336"/>
</svg>
