<svg width="24" height="24" viewBox="0 0 24 24" fill="none" xmlns="http://www.w3.org/2000/svg">
<path d="M12.2405 2C6.01808 2 1 6.01442 1 10.888C1 14.0514 3.08752 16.8213 6.2188 18.403L5.15898 22.3613C5.139 22.4207 5.13593 22.4843 5.15011 22.5453C5.16429 22.6063 5.19516 22.6621 5.23927 22.7065C5.30359 22.7633 5.38635 22.7946 5.47211 22.7948C5.54322 22.7891 5.61068 22.761 5.6648 22.7146L10.2252 19.6395C10.8984 19.7324 11.577 19.7807 12.2566 19.784C18.4709 19.784 23.4971 15.7696 23.4971 10.888C23.4971 6.00639 18.4549 2 12.2405 2Z" fill="#021526"/>
<path d="M4.93464 9.48289H3.70622C3.55396 9.48731 3.40359 9.44831 3.27266 9.37047C3.21453 9.33405 3.16455 9.28599 3.12586 9.22934C3.08718 9.17269 3.06062 9.10866 3.04785 9.04126C3.04395 8.99853 3.04395 8.9556 3.04785 8.91287C3.04403 8.83291 3.05955 8.75317 3.0931 8.68049C3.12664 8.60781 3.17722 8.54432 3.24054 8.49535C3.38051 8.39397 3.54946 8.34042 3.72227 8.34275H7.42361C7.57708 8.33735 7.72848 8.37943 7.85717 8.4632C7.91667 8.49801 7.96771 8.54564 8.00658 8.60257C8.04546 8.6595 8.07121 8.72432 8.08198 8.79241C8.0859 8.83246 8.0859 8.87282 8.08198 8.91287C8.08577 8.99398 8.07028 9.07481 8.03679 9.14877C8.00329 9.22274 7.95275 9.28766 7.88929 9.33832C7.75272 9.43958 7.58541 9.49066 7.41558 9.48289H6.2273V13.7061C6.23213 13.7961 6.2182 13.886 6.18641 13.9703C6.15462 14.0547 6.10566 14.1315 6.04263 14.1959C5.9822 14.2574 5.90954 14.3057 5.82934 14.3375C5.74914 14.3693 5.66316 14.3839 5.57695 14.3805C5.42617 14.3848 5.27858 14.3366 5.15945 14.2441C5.04604 14.1537 4.96907 14.0253 4.94267 13.8827C4.93474 13.8241 4.93474 13.7647 4.94267 13.7061L4.93464 9.48289Z" fill="white"/>
<path d="M8.43556 8.65581C8.47087 8.52369 8.55381 8.40928 8.6684 8.33463C8.7905 8.26543 8.92963 8.23204 9.06984 8.23829H9.37494C9.52372 8.23296 9.67105 8.2691 9.80047 8.34267C9.93762 8.4349 10.0351 8.57532 10.0735 8.73608L11.6792 13.2724C11.7209 13.3908 11.7557 13.5115 11.7836 13.6338C11.7864 13.6846 11.7864 13.7355 11.7836 13.7863C11.7863 13.8646 11.7719 13.9425 11.7414 14.0146C11.7109 14.0867 11.665 14.1513 11.607 14.2038C11.5507 14.2615 11.4832 14.3069 11.4086 14.3373C11.334 14.3677 11.2539 14.3824 11.1734 14.3804C11.0496 14.3928 10.9252 14.3631 10.8203 14.2961C10.7155 14.2291 10.6362 14.1287 10.5953 14.0111L10.2581 13.0236H8.14652L7.8093 14.0111C7.76942 14.131 7.6892 14.2333 7.58233 14.3007C7.47545 14.368 7.34853 14.3962 7.22319 14.3804C7.08742 14.384 6.95443 14.3415 6.84583 14.26C6.74002 14.1758 6.66863 14.056 6.64511 13.9228C6.64085 13.8774 6.64085 13.8317 6.64511 13.7863C6.63132 13.7066 6.63132 13.6252 6.64511 13.5455C6.64511 13.4572 6.70131 13.3608 6.73342 13.2724L8.43556 8.65581ZM9.23845 9.70765L8.4757 12.1163H9.99317L9.23845 9.70765Z" fill="white"/>
<path d="M11.9675 8.91296C11.9593 8.73278 12.0228 8.55671 12.1441 8.42321C12.2058 8.36102 12.2798 8.31241 12.3614 8.28061C12.443 8.2488 12.5304 8.23441 12.6178 8.23846C12.7682 8.23671 12.915 8.28473 13.0353 8.37499C13.1469 8.46917 13.2209 8.60017 13.2441 8.74429C13.252 8.80021 13.252 8.85704 13.2441 8.91296V13.1362H15.452C15.6051 13.1342 15.7555 13.1759 15.8856 13.2565C15.9441 13.2926 15.9943 13.3406 16.033 13.3973C16.0718 13.454 16.0981 13.5182 16.1104 13.5858C16.1104 13.5858 16.1104 13.6661 16.1104 13.7062C16.1142 13.7862 16.0987 13.8658 16.0652 13.9385C16.0316 14.0112 15.981 14.0748 15.9177 14.1237C15.7778 14.2251 15.6088 14.2786 15.436 14.2762H12.7222C12.5494 14.2874 12.3776 14.2424 12.2324 14.1478C12.1026 14.0508 12.0161 13.9066 11.9916 13.7464C11.9857 13.6582 11.9857 13.5696 11.9916 13.4814L11.9675 8.91296Z" fill="white"/>
<path d="M16.2553 8.91288C16.2505 8.73322 16.3136 8.55836 16.4319 8.42313C16.5523 8.31378 16.7066 8.24921 16.869 8.24044C17.0313 8.23166 17.1917 8.27917 17.3231 8.37491C17.4371 8.46826 17.514 8.5992 17.5399 8.74421C17.5439 8.80034 17.5439 8.85675 17.5399 8.91288V10.8799L19.5712 8.53545C19.6495 8.45546 19.7326 8.38046 19.8201 8.31071C19.9026 8.2616 19.9972 8.2365 20.0931 8.23838C20.2335 8.23761 20.3707 8.27964 20.4865 8.35883C20.5411 8.39559 20.5877 8.44302 20.6236 8.4982C20.6595 8.55338 20.6839 8.6152 20.6953 8.68001C20.6985 8.6959 20.6985 8.71234 20.6953 8.72823C20.6914 8.74676 20.6914 8.76586 20.6953 8.78439C20.695 8.86888 20.6729 8.95189 20.6311 9.0253C20.5885 9.10302 20.5373 9.17565 20.4785 9.242L19.1457 10.7033L20.7515 13.1923V13.2725C20.8349 13.3876 20.8999 13.515 20.9442 13.65V13.6901C20.9535 13.7831 20.9401 13.877 20.9051 13.9637C20.8701 14.0504 20.8147 14.1273 20.7435 14.1878C20.6095 14.2891 20.4457 14.3428 20.2778 14.3404C20.1662 14.345 20.0555 14.32 19.9566 14.2681C19.8497 14.1964 19.7616 14.1 19.6997 13.9871L18.2063 11.5784L17.4917 12.3252V13.6659C17.4966 13.8456 17.4335 14.0205 17.3151 14.1557C17.2517 14.2177 17.1762 14.2661 17.0933 14.2979C17.0105 14.3297 16.922 14.3442 16.8334 14.3404C16.6852 14.3435 16.5406 14.2953 16.4239 14.2039C16.3105 14.1135 16.2335 13.9853 16.2071 13.8427C16.1992 13.784 16.1992 13.7246 16.2071 13.6659L16.2553 8.91288Z" fill="white"/>
</svg>
